<mxGraphModel dx="820" dy="646" grid="1" gridSize="10" guides="1" tooltips="1" connect="1" arrows="1" fold="1" page="1" pageScale="1" pageWidth="850" pageHeight="1100" math="0" shadow="0">
  <root>
    <mxCell id="0"/>
    <mxCell id="1" parent="0"/>

    <!-- Main flow (ส่วนหลัก) -->
    <mxCell id="2" value="Start" style="ellipse;whiteSpace=wrap;html=1;" vertex="1" parent="1">
      <mxGeometry x="40" y="20" width="120" height="60" as="geometry"/>
    </mxCell>

    <mxCell id="3" value="เตรียมอุปกรณ์ครัว&#10;(กะทะ, ทัพพี, มีด, เขียง, จาน)" style="rectangle;whiteSpace=wrap;html=1;" vertex="1" parent="1">
      <mxGeometry x="40" y="110" width="260" height="60" as="geometry"/>
    </mxCell>

    <mxCell id="4" value="เตรียมวัตถุดิบหลัก&#10;ข้าวสวย(แช่เย็น), กระเทียม, พริก, ใบกระเพรา, หมูกรอบ, ไข่เยี่ยวม้า, เครื่องปรุง" style="parallelogram;whiteSpace=wrap;html=1;" vertex="1" parent="1">
      <mxGeometry x="40" y="200" width="360" height="80" as="geometry"/>
    </mxCell>

    <mxCell id="5" value="ฟังก์ชัน: ทำหมูกรอบ" style="rectangle;whiteSpace=wrap;html=1;strokeWidth=2;dashed=0;" vertex="1" parent="1">
      <mxGeometry x="40" y="300" width="240" height="60" as="geometry"/>
    </mxCell>

    <mxCell id="6" value="สับกระเทียมและพริก" style="rectangle;whiteSpace=wrap;html=1;" vertex="1" parent="1">
      <mxGeometry x="40" y="390" width="240" height="60" as="geometry"/>
    </mxCell>

    <mxCell id="7" value="ตั้งเตาและใส่น้ำมัน (ปริมาณพอเหมาะ)" style="rectangle;whiteSpace=wrap;html=1;" vertex="1" parent="1">
      <mxGeometry x="40" y="480" width="300" height="60" as="geometry"/>
    </mxCell>

    <mxCell id="8" value="เจียวกระเทียมและพริกจนหอม" style="rectangle;whiteSpace=wrap;html=1;" vertex="1" parent="1">
      <mxGeometry x="40" y="570" width="300" height="60" as="geometry"/>
    </mxCell>

    <mxCell id="9" value="ใส่หมูกรอบลงผัดให้ร้อนและเคลือบน้ำมันเล็กน้อย" style="rectangle;whiteSpace=wrap;html=1;" vertex="1" parent="1">
      <mxGeometry x="40" y="660" width="340" height="60" as="geometry"/>
    </mxCell>

    <mxCell id="10" value="ใส่ข้าวสวยลงผัด&#10;แยกเม็ดและคลุกให้เข้ากัน" style="rectangle;whiteSpace=wrap;html=1;" vertex="1" parent="1">
      <mxGeometry x="40" y="750" width="360" height="60" as="geometry"/>
    </mxCell>

    <mxCell id="11" value="ปรุงรสด้วยน้ำปลา/ซีอิ๊ว/น้ำตาล&#10;ชิมและปรับรสตามต้องการ" style="rectangle;whiteSpace=wrap;html=1;" vertex="1" parent="1">
      <mxGeometry x="40" y="840" width="360" height="80" as="geometry"/>
    </mxCell>

    <mxCell id="12" value="ใส่ใบกระเพราแล้วผัดเร็ว ๆ" style="rectangle;whiteSpace=wrap;html=1;" vertex="1" parent="1">
      <mxGeometry x="40" y="950" width="300" height="60" as="geometry"/>
    </mxCell>

    <mxCell id="13" value="ฟังก์ชัน: จัดเสิร์ฟและแต่งจาน" style="rectangle;whiteSpace=wrap;html=1;strokeWidth=2;dashed=0;" vertex="1" parent="1">
      <mxGeometry x="40" y="1040" width="300" height="60" as="geometry"/>
    </mxCell>

    <mxCell id="14" value="จัดวางข้าวผัดบนจาน&#10;วางหมูกรอบและวางไข่เยี่ยวม้า" style="parallelogram;whiteSpace=wrap;html=1;" vertex="1" parent="1">
      <mxGeometry x="40" y="1130" width="360" height="80" as="geometry"/>
    </mxCell>

    <mxCell id="15" value="Stop" style="ellipse;whiteSpace=wrap;html=1;" vertex="1" parent="1">
      <mxGeometry x="120" y="1240" width="120" height="60" as="geometry"/>
    </mxCell>

    <!-- Connectors main -->
    <mxCell id="c2" edge="1" parent="1" source="2" target="3">
      <mxGeometry relative="1" as="geometry"/>
    </mxCell>
    <mxCell id="c3" edge="1" parent="1" source="3" target="4">
      <mxGeometry relative="1" as="geometry"/>
    </mxCell>
    <mxCell id="c4" edge="1" parent="1" source="4" target="5">
      <mxGeometry relative="1" as="geometry"/>
    </mxCell>
    <mxCell id="c5" edge="1" parent="1" source="5" target="6">
      <mxGeometry relative="1" as="geometry"/>
    </mxCell>
    <mxCell id="c6" edge="1" parent="1" source="6" target="7">
      <mxGeometry relative="1" as="geometry"/>
    </mxCell>
    <mxCell id="c7" edge="1" parent="1" source="7" target="8">
      <mxGeometry relative="1" as="geometry"/>
    </mxCell>
    <mxCell id="c8" edge="1" parent="1" source="8" target="9">
      <mxGeometry relative="1" as="geometry"/>
    </mxCell>
    <mxCell id="c9" edge="1" parent="1" source="9" target="10">
      <mxGeometry relative="1" as="geometry"/>
    </mxCell>
    <mxCell id="c10" edge="1" parent="1" source="10" target="11">
      <mxGeometry relative="1" as="geometry"/>
    </mxCell>
    <mxCell id="c11" edge="1" parent="1" source="11" target="12">
      <mxGeometry relative="1" as="geometry"/>
    </mxCell>
    <mxCell id="c12" edge="1" parent="1" source="12" target="13">
      <mxGeometry relative="1" as="geometry"/>
    </mxCell>
    <mxCell id="c13" edge="1" parent="1" source="13" target="14">
      <mxGeometry relative="1" as="geometry"/>
    </mxCell>
    <mxCell id="c14" edge="1" parent="1" source="14" target="15">
      <mxGeometry relative="1" as="geometry"/>
    </mxCell>

    <!-- Subflow: ฟังก์ชัน ทำหมูกรอบ -->
    <mxCell id="101" value="Start (ฟังก์ชัน: ทำหมูกรอบ)" style="ellipse;whiteSpace=wrap;html=1;" vertex="1" parent="1">
      <mxGeometry x="460" y="60" width="140" height="60" as="geometry"/>
    </mxCell>

    <mxCell id="102" value="เลือกชิ้นหมูที่เหมาะสม&#10;(ส่วนที่มีหนัง/ไขมันพอสมควร)" style="rectangle;whiteSpace=wrap;html=1;" vertex="1" parent="1">
      <mxGeometry x="430" y="140" width="200" height="60" as="geometry"/>
    </mxCell>

    <mxCell id="103" value="ต้มลวกหรือต้มจนสุกเล็กน้อยแล้วพักให้แห้ง" style="rectangle;whiteSpace=wrap;html=1;" vertex="1" parent="1">
      <mxGeometry x="430" y="220" width="240" height="60" as="geometry"/>
    </mxCell>

    <mxCell id="104" value="ปรุงรส/หมัก (ถ้าต้องการ) แล้วผึ่งให้เย็น" style="rectangle;whiteSpace=wrap;html=1;" vertex="1" parent="1">
      <mxGeometry x="430" y="300" width="240" height="60" as="geometry"/>
    </mxCell>

    <mxCell id="105" value="ทอด/อบจนหนังพองกรอบและมีสีสวย" style="rectangle;whiteSpace=wrap;html=1;" vertex="1" parent="1">
      <mxGeometry x="430" y="380" width="260" height="60" as="geometry"/>
    </mxCell>

    <mxCell id="106" value="Stop (ฟังก์ชัน: ทำหมูกรอบ)" style="ellipse;whiteSpace=wrap;html=1;" vertex="1" parent="1">
      <mxGeometry x="480" y="460" width="140" height="60" as="geometry"/>
    </mxCell>

    <mxCell id="c101" edge="1" parent="1" source="101" target="102">
      <mxGeometry relative="1" as="geometry"/>
    </mxCell>
    <mxCell id="c102" edge="1" parent="1" source="102" target="103">
      <mxGeometry relative="1" as="geometry"/>
    </mxCell>
    <mxCell id="c103" edge="1" parent="1" source="103" target="104">
      <mxGeometry relative="1" as="geometry"/>
    </mxCell>
    <mxCell id="c104" edge="1" parent="1" source="104" target="105">
      <mxGeometry relative="1" as="geometry"/>
    </mxCell>
    <mxCell id="c105" edge="1" parent="1" source="105" target="106">
      <mxGeometry relative="1" as="geometry"/>
    </mxCell>

    <!-- Subflow: ฟังก์ชัน จัดเสิร์ฟและแต่งจาน -->
    <mxCell id="201" value="Start (ฟังก์ชัน: จัดเสิร์ฟและแต่งจาน)" style="ellipse;whiteSpace=wrap;html=1;" vertex="1" parent="1">
      <mxGeometry x="460" y="700" width="180" height="60" as="geometry"/>
    </mxCell>

    <mxCell id="202" value="เลือกจานและอุปกรณ์เสิร์ฟ&#10;อุ่นจานถ้าต้องการ" style="rectangle;whiteSpace=wrap;html=1;" vertex="1" parent="1">
      <mxGeometry x="430" y="780" width="240" height="60" as="geometry"/>
    </mxCell>

    <mxCell id="203" value="ตักข้าวผัดลงในจานและปาดให้เรียบ" style="rectangle;whiteSpace=wrap;html=1;" vertex="1" parent="1">
      <mxGeometry x="430" y="860" width="240" height="60" as="geometry"/>
    </mxCell>

    <mxCell id="204" value="วางหมูกรอบและจัดไข่เยี่ยวม้าเป็นชิ้นข้างจาน" style="rectangle;whiteSpace=wrap;html=1;" vertex="1" parent="1">
      <mxGeometry x="430" y="940" width="260" height="60" as="geometry"/>
    </mxCell>

    <mxCell id="205" value="ตกแต่งด้วยผักหรือพริกสดตามต้องการ" style="rectangle;whiteSpace=wrap;html=1;" vertex="1" parent="1">
      <mxGeometry x="430" y="1020" width="260" height="60" as="geometry"/>
    </mxCell>

    <mxCell id="206" value="Stop (ฟังก์ชัน: จัดเสิร์ฟและแต่งจาน)" style="ellipse;whiteSpace=wrap;html=1;" vertex="1" parent="1">
      <mxGeometry x="500" y="1100" width="160" height="60" as="geometry"/>
    </mxCell>

    <mxCell id="c201" edge="1" parent="1" source="201" target="202">
      <mxGeometry relative="1" as="geometry"/>
    </mxCell>
    <mxCell id="c202" edge="1" parent="1" source="202" target="203">
      <mxGeometry relative="1" as="geometry"/>
    </mxCell>
    <mxCell id="c203" edge="1" parent="1" source="203" target="204">
      <mxGeometry relative="1" as="geometry"/>
    </mxCell>
    <mxCell id="c204" edge="1" parent="1" source="204" target="205">
      <mxGeometry relative="1" as="geometry"/>
    </mxCell>
    <mxCell id="c205" edge="1" parent="1" source="205" target="206">
      <mxGeometry relative="1" as="geometry"/>
    </mxCell>

  </root>
</mxGraphModel>
